<?xml version="1.0" standalone="no"?>
<!DOCTYPE svg PUBLIC "-//W3C//DTD SVG 20010904//EN"
 "http://www.w3.org/TR/2001/REC-SVG-20010904/DTD/svg10.dtd">
<svg version="1.0" xmlns="http://www.w3.org/2000/svg"
 width="585.000000pt" height="425.000000pt" viewBox="0 0 585.000000 425.000000"
 preserveAspectRatio="xMidYMid meet">

<g transform="translate(0.000000,425.000000) scale(0.100000,-0.100000)"
fill="#000000" stroke="none">
<path d="M1597 4123 c-4 -3 -7 -39 -7 -79 l0 -72 -37 -6 c-21 -3 -69 -8 -108
-11 -147 -14 -338 -61 -480 -120 -373 -154 -576 -413 -615 -790 -33 -317 112
-627 378 -806 26 -18 48 -33 49 -34 2 -1 7 -25 13 -53 37 -196 245 -359 578
-452 121 -34 144 -36 163 -14 24 29 -3 48 -109 76 -281 76 -467 192 -533 332
-16 33 -27 61 -25 63 2 2 25 -1 52 -7 150 -34 304 56 304 176 0 49 -40 116
-87 145 -100 62 -261 -8 -319 -140 -10 -23 -21 -41 -24 -41 -15 0 -99 67 -152
123 -76 78 -143 188 -182 295 -30 84 -31 93 -30 247 0 145 3 168 28 250 72
236 218 405 452 523 147 74 409 144 596 158 l86 7 7 -87 c5 -56 12 -86 19 -86
17 0 206 194 206 211 0 16 -189 199 -206 199 -6 0 -14 -3 -17 -7z m-489 -1728
c61 -51 49 -116 -28 -155 -47 -24 -135 -27 -186 -5 l-35 14 16 38 c46 111 165
165 233 108z"/>
<path d="M2490 3578 c-1 -2 -2 -28 -3 -58 -2 -39 -34 -145 -111 -370 -109
-316 -149 -410 -190 -449 l-23 -22 -29 76 c-16 41 -32 75 -37 75 -5 0 -27 -16
-50 -35 l-41 -35 -113 0 -113 0 0 160 0 160 78 0 c69 0 127 -11 185 -35 15 -6
17 1 17 74 0 45 -2 81 -5 81 -4 0 -20 -7 -38 -17 -21 -11 -66 -18 -134 -21
l-103 -5 0 162 0 161 108 0 108 0 54 -40 53 -40 29 73 c15 39 28 75 28 80 0 4
-132 7 -294 7 l-294 0 16 -32 c15 -29 17 -80 20 -400 3 -381 3 -374 -36 -451
-2 -4 176 -7 396 -6 l400 1 -5 51 c-3 37 2 76 19 132 l23 80 140 0 139 0 28
-70 c28 -69 31 -117 13 -172 -7 -22 -7 -22 129 -22 75 0 136 2 136 5 0 2 -15
24 -34 48 -18 24 -48 79 -66 122 -29 69 -270 722 -270 731 0 3 -130 4 -130 1z
m102 -400 c26 -68 50 -131 54 -140 6 -17 -3 -18 -104 -18 l-110 0 52 140 c28
77 53 140 56 140 3 0 26 -55 52 -122z"/>
<path d="M851 3523 c18 -35 19 -64 19 -400 0 -303 -3 -370 -15 -400 -21 -49
-12 -53 113 -52 92 1 102 3 96 18 -29 69 -33 95 -34 239 l0 152 145 0 145 0 0
-163 c0 -143 -2 -168 -20 -202 -11 -22 -20 -40 -20 -41 0 -2 54 -3 120 -3 66
0 120 2 120 4 0 1 -9 22 -20 46 -18 41 -20 67 -20 399 0 329 2 358 20 398 l19
42 -119 0 -119 0 19 -42 c17 -37 20 -67 20 -200 l0 -158 -145 0 -145 0 0 150
c0 123 3 159 19 200 l19 50 -118 0 -118 0 19 -37z"/>
<path d="M3032 3521 c18 -37 19 -62 18 -401 0 -294 -3 -368 -15 -397 -8 -19
-12 -39 -9 -45 7 -11 564 -10 564 1 0 12 -51 135 -59 144 -4 4 -27 -8 -52 -28
l-44 -35 -112 0 -113 0 0 350 c0 320 2 354 19 400 l19 50 -118 0 -117 0 19
-39z"/>
<path d="M3580 3553 c0 -5 12 -41 26 -80 l27 -73 36 29 c56 44 75 51 135 51
l56 0 0 -363 c0 -336 -1 -365 -19 -400 l-19 -37 123 0 122 0 -18 53 c-16 46
-18 90 -19 400 l0 347 64 0 c58 0 69 -3 110 -35 26 -19 50 -35 55 -35 5 0 22
34 39 75 l31 75 -375 0 c-206 0 -374 -3 -374 -7z"/>
<path d="M4361 3523 c18 -35 19 -64 19 -400 0 -301 -3 -370 -15 -400 -8 -19
-15 -40 -15 -45 0 -5 50 -8 116 -7 103 1 114 3 108 18 -29 69 -33 95 -34 239
l0 152 145 0 145 0 0 -163 c0 -143 -2 -168 -20 -202 -11 -22 -20 -40 -20 -41
0 -2 54 -3 120 -3 66 0 120 2 120 4 0 1 -9 22 -20 46 -18 41 -20 67 -20 399 0
329 2 358 20 398 l19 42 -119 0 -119 0 19 -42 c17 -37 20 -67 20 -200 l0 -158
-145 0 -145 0 0 150 c0 123 3 159 19 200 l19 50 -118 0 -118 0 19 -37z"/>
<path d="M2140 2601 c-76 -23 -127 -69 -162 -146 -20 -44 -23 -66 -23 -175 0
-110 3 -131 24 -177 27 -62 82 -115 137 -134 64 -22 181 -17 237 10 100 49
142 137 142 301 0 132 -20 195 -80 256 -63 63 -186 92 -275 65z m116 -109 c94
-48 139 -153 139 -325 0 -102 -1 -110 -24 -128 -45 -37 -149 -19 -210 37 -69
61 -127 236 -119 356 6 82 17 91 103 86 44 -3 85 -13 111 -26z"/>
<path d="M1420 2598 c0 -2 7 -21 15 -43 11 -31 14 -96 14 -275 0 -179 -3 -244
-14 -275 -8 -22 -15 -41 -15 -42 0 -2 37 -3 81 -3 80 0 81 0 73 23 -4 12 -9
77 -11 145 l-4 122 105 0 106 0 0 -105 c0 -71 -5 -117 -15 -142 -8 -19 -15
-37 -15 -39 0 -2 38 -4 84 -4 l85 0 -15 35 c-21 50 -21 520 0 570 l15 35 -83
0 -84 0 14 -37 c8 -23 13 -82 14 -145 l0 -108 -105 0 -105 0 0 115 c0 84 4
124 15 145 l16 30 -86 0 c-47 0 -85 -1 -85 -2z"/>
<path d="M2555 2566 c22 -51 22 -520 1 -571 l-15 -35 86 0 c84 0 85 0 78 23
-4 12 -10 64 -12 115 l-5 92 64 0 c88 0 136 16 179 59 87 87 77 264 -19 323
-34 21 -51 23 -204 26 l-168 4 15 -36z m266 -49 c49 -33 61 -62 55 -131 -7
-90 -57 -144 -140 -153 l-46 -6 0 157 0 156 49 0 c33 0 58 -7 82 -23z"/>
<path d="M3035 2566 c22 -51 22 -520 1 -571 l-15 -35 86 0 c84 0 85 0 78 23
-4 12 -10 64 -12 115 l-5 92 64 0 c88 0 136 16 179 59 87 87 77 264 -19 323
-34 21 -51 23 -204 26 l-168 4 15 -36z m266 -49 c49 -33 61 -62 55 -131 -7
-90 -57 -144 -140 -153 l-46 -6 0 157 0 156 49 0 c33 0 58 -7 82 -23z"/>
<path d="M3516 2564 c12 -29 14 -82 11 -297 -2 -144 -7 -272 -11 -284 l-8 -23
207 0 207 0 -6 23 c-3 13 -12 40 -21 61 l-16 37 -35 -30 c-32 -29 -40 -31
-114 -31 l-80 0 0 116 0 116 78 -5 c42 -2 87 -7 100 -12 21 -7 22 -5 22 49 0
31 -2 56 -4 56 -2 0 -20 -7 -39 -15 -20 -8 -64 -15 -97 -15 l-60 0 0 115 0
115 78 0 c68 0 83 -3 112 -25 19 -14 36 -25 40 -25 5 0 40 90 40 104 0 3 -94
6 -209 6 l-210 0 15 -36z"/>
<path d="M3966 2571 c12 -25 14 -78 12 -303 -2 -150 -7 -281 -12 -290 -7 -16
-1 -18 78 -18 47 0 86 1 86 3 0 1 -7 20 -15 42 -15 42 -21 265 -7 264 4 0 39
-50 77 -110 39 -61 88 -130 111 -155 40 -44 41 -44 109 -44 l68 0 -47 50 c-41
44 -186 254 -186 270 0 3 15 12 34 18 103 37 142 192 65 256 -44 37 -89 46
-246 46 l-141 0 14 -29z m262 -58 c39 -29 49 -65 32 -115 -19 -52 -55 -79
-114 -85 l-46 -6 0 118 0 118 51 -5 c28 -3 62 -14 77 -25z"/>
</g>
</svg>
